<?xml version="1.0" standalone="no"?>
<!DOCTYPE svg PUBLIC "-//W3C//DTD SVG 20010904//EN"
 "http://www.w3.org/TR/2001/REC-SVG-20010904/DTD/svg10.dtd">
<svg version="1.0" xmlns="http://www.w3.org/2000/svg"
 width="512.000000pt" height="512.000000pt" viewBox="0 0 512.000000 512.000000"
 preserveAspectRatio="xMidYMid meet">
<metadata>
Created by potrace 1.16, written by Peter Selinger 2001-2019
</metadata>
<g transform="translate(0.000000,512.000000) scale(0.100000,-0.100000)"
fill="#000000" stroke="none">
<path d="M2295 5104 c-578 -77 -968 -357 -1154 -826 -54 -136 -100 -354 -101
-474 l0 -41 123 -6 c213 -10 300 -48 536 -233 7 -6 -38 7 -102 27 -146 48
-268 71 -382 72 -164 2 -228 -29 -256 -124 -15 -48 -2 -87 131 -424 l90 -225
-119 -238 c-166 -332 -174 -362 -123 -443 66 -103 164 -152 662 -332 129 -47
248 -90 263 -96 l28 -11 -33 -39 c-81 -95 -155 -306 -129 -369 16 -39 79 -99
112 -107 25 -6 28 -3 48 57 22 62 66 151 57 113 -12 -50 -18 -203 -8 -209 13
-8 195 -46 199 -42 2 1 11 36 22 77 10 41 26 90 35 109 15 34 15 30 9 -81 l-6
-116 29 -6 c16 -3 85 -11 152 -18 95 -10 125 -10 131 -1 4 7 13 58 20 115 7
57 16 109 20 115 8 13 25 -70 37 -175 l6 -62 47 -3 c48 -3 178 7 216 16 27 7
34 42 36 161 l1 80 18 -69 c10 -38 22 -91 25 -118 8 -56 -4 -55 148 -14 l82
22 3 46 c2 26 -6 84 -17 130 -10 46 -18 84 -16 86 12 12 85 -158 85 -200 0
-26 11 -23 87 23 123 73 117 63 99 149 -21 102 -81 223 -145 292 -28 31 -48
59 -44 61 4 3 28 8 53 12 71 11 322 97 465 160 224 97 383 191 444 261 32 36
33 40 28 103 -7 95 -39 184 -135 371 -73 144 -83 171 -83 217 0 67 0 68 82
249 90 200 112 266 113 343 1 63 1 63 -46 106 -110 100 -234 89 -640 -58 -71
-25 -128 -42 -128 -37 0 20 86 114 141 155 128 94 261 136 435 136 61 0 119
-3 129 -7 16 -6 17 -2 11 47 -32 259 -74 407 -172 600 -200 392 -544 627
-1017 694 -128 18 -464 18 -602 -1z m-632 -1959 c32 -19 129 -89 217 -155 203
-152 362 -231 497 -247 29 -3 53 -8 53 -10 0 -3 -26 -35 -59 -71 -32 -37 -84
-102 -115 -145 -75 -102 -106 -113 -225 -82 -31 8 -120 25 -198 39 -78 14
-151 31 -163 38 -21 13 -112 142 -146 208 -10 19 -41 114 -69 210 -51 175 -51
175 -86 187 -39 13 -36 15 66 44 100 29 160 25 228 -16z m2103 1 l29 -15 -35
-1 c-60 -1 -77 -9 -73 -34 7 -34 -10 -106 -67 -291 -66 -212 -88 -259 -138
-284 -59 -30 -154 -56 -338 -91 -149 -29 -175 -32 -202 -21 -20 9 -58 50 -111
119 -44 59 -102 130 -128 159 l-48 51 65 7 c83 8 226 56 300 99 32 19 132 82
224 140 91 59 188 118 215 131 105 53 242 67 307 31z m-1121 -989 c29 -29 85
-97 125 -151 72 -95 74 -99 59 -124 -17 -32 -84 -72 -119 -72 -17 0 -44 20
-90 65 l-66 65 -64 -65 c-51 -52 -71 -65 -95 -65 -37 0 -88 30 -111 65 -16 24
-15 27 11 68 59 89 247 267 283 267 9 0 39 -24 67 -53z"/>
<path d="M3860 1788 c-150 -45 -264 -85 -312 -109 -71 -36 -79 -59 -49 -129
65 -150 -28 -623 -153 -775 l-24 -30 24 73 c18 54 24 90 22 135 l-3 62 -35 -1
c-19 -1 -60 -9 -91 -18 l-56 -17 -26 -92 -27 -92 5 86 4 87 -62 -15 c-34 -8
-83 -19 -108 -24 l-46 -10 -13 -76 c-19 -117 -31 -132 -24 -29 l7 89 -149 -8
c-85 -4 -152 -11 -155 -17 -4 -6 -10 -38 -14 -72 -14 -135 -20 -138 -34 -23
-15 123 -3 112 -141 122 -47 3 -106 8 -131 12 l-47 5 -12 -71 c-6 -39 -16 -71
-21 -71 -5 0 -9 33 -9 73 l0 74 -87 17 c-49 9 -98 20 -110 23 -22 5 -23 3 -24
-68 l0 -74 -25 85 c-14 46 -27 87 -30 89 -7 7 -96 17 -116 13 -25 -5 -32 -69
-14 -146 9 -37 21 -77 27 -89 10 -22 10 -22 -6 -2 -50 61 -130 222 -161 325
-40 129 -37 288 7 405 12 33 22 73 23 89 1 28 -2 31 -54 41 -69 14 -213 62
-262 86 -49 25 -110 25 -132 0 -20 -22 -15 -39 32 -104 53 -74 116 -240 142
-378 6 -30 15 -126 20 -213 8 -154 10 -161 44 -230 42 -86 89 -133 336 -332
96 -77 252 -208 346 -291 95 -83 181 -156 192 -162 28 -15 96 -14 136 3 18 7
49 28 69 46 l37 32 20 -25 c47 -59 181 -88 249 -52 16 8 65 56 109 107 121
141 226 237 337 310 175 115 301 242 361 363 44 91 79 230 98 397 24 204 90
453 147 556 31 55 29 57 -31 40z"/>
</g>
</svg>
